<svg xmlns="http://www.w3.org/2000/svg" viewBox="0 0 216 36"><g><g><g><g><g><path fill-rule="evenodd" clip-rule="evenodd" fill="#008576" d="M162.7 8.2v6.2l7.6-1.2v-3.1c0-6.1-2-7.7-8.1-7.7h-19.5c-6.1 0-8.1 1.6-8.1 7.7v17.2c0 6.1 2 7.7 8.1 7.7h19.5c6.1 0 8.1-1.6 8.1-7.7v-3.9l-7.6-1.6v7h-20.5V8.2h20.5z"/></g><g><path fill-rule="evenodd" clip-rule="evenodd" fill="#008576" d="M184.1 2.4h-7.6v24.9c0 6.1 2 7.7 8.1 7.7h20.6c6.1 0 8.1-1.6 8.1-7.7V2.4h-7.6v26.5h-21.6V2.4z"/></g></g></g><g><g><g><path fill-rule="evenodd" clip-rule="evenodd" fill="#008576" d="M12.5 34.7h5.2l9-22.4 8.9 22.4h5.1L53.2 2.3h-6.7L38.6 24 29.9 2.3h-5.3L16 24 7.8 2.3H0z"/></g><g><path fill-rule="evenodd" clip-rule="evenodd" fill="#008576" d="M82.6 8v3.7l6.7-1.6v-.7c0-5.6-2.3-7.1-8-7.1H62.8c-6.1 0-8 1.6-8 7.7v3.6c0 6.1 1.9 7.7 8 7.7H83v7.4H60.1v-3.8l-6.6 1.4v.7c0 6.1 2 7.7 8.1 7.7h20c6.1 0 8.1-1.6 8.1-7.7v-4.5c0-6.1-2-7.7-8.1-7.7H61.4V8h21.2z"/></g><g><path fill-rule="evenodd" clip-rule="evenodd" fill="#008576" d="M95.9 34.7h33.5v-6.1h-25.9v-8h14.9v-5.5h-14.9V7.8h25.6V2.3H95.9z"/></g></g></g></g></g></svg>