<svg xmlns="http://www.w3.org/2000/svg" xmlns:xlink="http://www.w3.org/1999/xlink" width="24" height="24"><defs><path id="a" d="M0 15.892V0h20.122v15.892z"/></defs><g fill="none" fill-rule="evenodd" transform="translate(2 4)"><mask id="b" fill="#fff"><use xlink:href="#a"/></mask><path fill="#FFF" d="M6.541 10.1h3.751l1.442.015c.208-.011 1.415-.033 1.513.047.082.066.076 1.648.041 1.826-.013.06-.029.107-.092.126-.11.031-.246.007-.37.011l-1.059.012c-1.752-.006-3.505-.01-5.258-.017v-1.41c0-.19-.028-.45.032-.61m0-2.886l6.54.012c.054.008.1.02.134.05.12.106.06 1.677.06 1.959H6.668c-.04 0-.128.02-.128-.033h-.032V7.92c0-.216-.03-.521.032-.706m3.463-4.649v.032c-.474.168-.916.48-1.355.723-1.006.555-2.006 1.138-3.03 1.664l-.515.318c-.238.145-.476.29-.714.432-.226.129-.518.23-.71.416a.254.254 0 00-.071.137l-.018.607v6.765c0 .048-.019.16.032.16v.032H14.14c.68.01 1.374.032 2.052.032v-.032c.121-.15.063-.552.063-.77l.001-2.66V7.279c0-.265.058-.864-.039-1.072l-.064-.076c-.314-.277-.723-.44-1.07-.667-1.117-.725-2.289-1.356-3.434-2.02l-1.003-.594c-.212-.116-.369-.26-.642-.285M10.068 0c.489.181 1.071.612 1.502.904.23.155.475.273.708.413.482.286.945.588 1.423.877 1.611.975 3.263 1.906 4.893 2.843.354.203.674.445 1.018.653.132.08.347.16.43.292.132.21.062 1.555.062 1.906 0 .063.025.32-.033.32v.032h-1.346v5.611c0 .289.041 1.885-.065 1.984-.108.1-3.073.037-3.462.037H2.565c-.217 0-.908.051-1.047-.05L1.49 15.8c-.096-.127-.048-.875-.041-1.08l-.006-3.85c.008-.52 0-1.032 0-1.57 0-.289.064-.644.003-.925-.008-.035-.026-.077-.058-.093-.167-.086-.997-.04-1.26-.04-.046 0-.097.018-.097-.032H0l.013-1.57c-.004-.188-.04-.549.062-.7.108-.16.481-.334.65-.439a41.307 41.307 0 012.502-1.473l3.676-2.15A36.769 36.769 0 008.988.627l.617-.325c.154-.1.309-.2.463-.302" mask="url(#b)"/></g></svg>